<svg id="visual" viewBox="0 0 1920 1080" width="1920" height="1080" xmlns="http://www.w3.org/2000/svg" xmlns:xlink="http://www.w3.org/1999/xlink" version="1.1"><rect x="0" y="0" width="1920" height="1080" fill="#04043c"></rect><path d="M0 731L45.7 738.8C91.3 746.7 182.7 762.3 274.2 768.2C365.7 774 457.3 770 548.8 766.2C640.3 762.3 731.7 758.7 823 754.3C914.3 750 1005.7 745 1097 745.2C1188.3 745.3 1279.7 750.7 1371.2 750.7C1462.7 750.7 1554.3 745.3 1645.8 747.7C1737.3 750 1828.7 760 1874.3 765L1920 770L1920 1081L1874.3 1081C1828.7 1081 1737.3 1081 1645.8 1081C1554.3 1081 1462.7 1081 1371.2 1081C1279.7 1081 1188.3 1081 1097 1081C1005.7 1081 914.3 1081 823 1081C731.7 1081 640.3 1081 548.8 1081C457.3 1081 365.7 1081 274.2 1081C182.7 1081 91.3 1081 45.7 1081L0 1081Z" fill="#324c9f"></path><path d="M0 776L45.7 777.7C91.3 779.3 182.7 782.7 274.2 787.2C365.7 791.7 457.3 797.3 548.8 801.8C640.3 806.3 731.7 809.7 823 810.8C914.3 812 1005.7 811 1097 807.3C1188.3 803.7 1279.7 797.3 1371.2 798C1462.7 798.7 1554.3 806.3 1645.8 809.2C1737.3 812 1828.7 810 1874.3 809L1920 808L1920 1081L1874.3 1081C1828.7 1081 1737.3 1081 1645.8 1081C1554.3 1081 1462.7 1081 1371.2 1081C1279.7 1081 1188.3 1081 1097 1081C1005.7 1081 914.3 1081 823 1081C731.7 1081 640.3 1081 548.8 1081C457.3 1081 365.7 1081 274.2 1081C182.7 1081 91.3 1081 45.7 1081L0 1081Z" fill="#2b408d"></path><path d="M0 826L45.7 827.5C91.3 829 182.7 832 274.2 834.2C365.7 836.3 457.3 837.7 548.8 842.2C640.3 846.7 731.7 854.3 823 858C914.3 861.7 1005.7 861.3 1097 862C1188.3 862.7 1279.7 864.3 1371.2 861.2C1462.7 858 1554.3 850 1645.8 845.5C1737.3 841 1828.7 840 1874.3 839.5L1920 839L1920 1081L1874.3 1081C1828.7 1081 1737.3 1081 1645.8 1081C1554.3 1081 1462.7 1081 1371.2 1081C1279.7 1081 1188.3 1081 1097 1081C1005.7 1081 914.3 1081 823 1081C731.7 1081 640.3 1081 548.8 1081C457.3 1081 365.7 1081 274.2 1081C182.7 1081 91.3 1081 45.7 1081L0 1081Z" fill="#23347c"></path><path d="M0 870L45.7 873.7C91.3 877.3 182.7 884.7 274.2 891.2C365.7 897.7 457.3 903.3 548.8 904.3C640.3 905.3 731.7 901.7 823 900C914.3 898.3 1005.7 898.7 1097 898C1188.3 897.3 1279.7 895.7 1371.2 894.2C1462.7 892.7 1554.3 891.3 1645.8 891C1737.3 890.7 1828.7 891.3 1874.3 891.7L1920 892L1920 1081L1874.3 1081C1828.7 1081 1737.3 1081 1645.8 1081C1554.3 1081 1462.7 1081 1371.2 1081C1279.7 1081 1188.3 1081 1097 1081C1005.7 1081 914.3 1081 823 1081C731.7 1081 640.3 1081 548.8 1081C457.3 1081 365.7 1081 274.2 1081C182.7 1081 91.3 1081 45.7 1081L0 1081Z" fill="#1b286b"></path><path d="M0 927L45.7 925.5C91.3 924 182.7 921 274.2 919.7C365.7 918.3 457.3 918.7 548.8 922.5C640.3 926.3 731.7 933.7 823 933.5C914.3 933.3 1005.7 925.7 1097 925.2C1188.3 924.7 1279.7 931.3 1371.2 936C1462.7 940.7 1554.3 943.3 1645.8 942.7C1737.3 942 1828.7 938 1874.3 936L1920 934L1920 1081L1874.3 1081C1828.7 1081 1737.3 1081 1645.8 1081C1554.3 1081 1462.7 1081 1371.2 1081C1279.7 1081 1188.3 1081 1097 1081C1005.7 1081 914.3 1081 823 1081C731.7 1081 640.3 1081 548.8 1081C457.3 1081 365.7 1081 274.2 1081C182.7 1081 91.3 1081 45.7 1081L0 1081Z" fill="#121d5b"></path><path d="M0 963L45.7 968.2C91.3 973.3 182.7 983.7 274.2 987.3C365.7 991 457.3 988 548.8 984.8C640.3 981.7 731.7 978.3 823 980C914.3 981.7 1005.7 988.3 1097 986.3C1188.3 984.3 1279.7 973.7 1371.2 972.7C1462.7 971.7 1554.3 980.3 1645.8 980.5C1737.3 980.7 1828.7 972.3 1874.3 968.2L1920 964L1920 1081L1874.3 1081C1828.7 1081 1737.3 1081 1645.8 1081C1554.3 1081 1462.7 1081 1371.2 1081C1279.7 1081 1188.3 1081 1097 1081C1005.7 1081 914.3 1081 823 1081C731.7 1081 640.3 1081 548.8 1081C457.3 1081 365.7 1081 274.2 1081C182.7 1081 91.3 1081 45.7 1081L0 1081Z" fill="#08124b"></path><path d="M0 1032L45.7 1029.8C91.3 1027.7 182.7 1023.3 274.2 1022C365.7 1020.7 457.3 1022.3 548.8 1021.5C640.3 1020.7 731.7 1017.3 823 1017.8C914.3 1018.3 1005.7 1022.7 1097 1022.2C1188.3 1021.7 1279.7 1016.3 1371.2 1016.2C1462.7 1016 1554.3 1021 1645.8 1023.2C1737.3 1025.3 1828.7 1024.7 1874.3 1024.3L1920 1024L1920 1081L1874.3 1081C1828.7 1081 1737.3 1081 1645.8 1081C1554.3 1081 1462.7 1081 1371.2 1081C1279.7 1081 1188.3 1081 1097 1081C1005.7 1081 914.3 1081 823 1081C731.7 1081 640.3 1081 548.8 1081C457.3 1081 365.7 1081 274.2 1081C182.7 1081 91.3 1081 45.7 1081L0 1081Z" fill="#04043c"></path></svg>